<?xml version="1.0" standalone="no"?>
<!DOCTYPE svg PUBLIC "-//W3C//DTD SVG 20010904//EN"
 "http://www.w3.org/TR/2001/REC-SVG-20010904/DTD/svg10.dtd">
<svg version="1.0" xmlns="http://www.w3.org/2000/svg"
 width="48.000000pt" height="48.000000pt" viewBox="0 0 48.000000 48.000000"
 preserveAspectRatio="xMidYMid meet">

<g transform="translate(0.000000,48.000000) scale(0.100000,-0.100000)"
fill="#000000" stroke="none">
<path d="M133 430 c-51 -28 -99 -60 -108 -72 -11 -17 -15 -48 -15 -119 0 -120
5 -128 134 -195 l96 -49 96 50 c129 67 134 74 134 195 0 80 -3 102 -19 121
-19 25 -188 119 -212 119 -8 0 -55 -23 -106 -50z m147 -57 c0 -5 -7 -29 -15
-55 -12 -41 -12 -48 0 -48 9 0 12 -6 9 -15 -4 -8 -12 -15 -20 -15 -7 0 -17
-15 -22 -32 l-8 -33 53 -3 c45 -3 54 -6 51 -20 -3 -14 -18 -17 -90 -20 l-87
-3 11 37 c7 27 7 39 -2 44 -15 9 -5 30 14 30 7 0 18 24 25 53 19 73 28 87 56
87 14 0 25 -3 25 -7z"/>
</g>
</svg>
