<svg xmlns="http://www.w3.org/2000/svg" xmlns:xlink="http://www.w3.org/1999/xlink"><defs>
<clipPath id="clip0_1_408">
<rect width="38.4" height="38.4" fill="white" transform="translate(4.8002 4.80019)"/>
</clipPath>

<clipPath id="clip0_1_390">
<rect width="38.4" height="38.4" fill="white" transform="translate(4.8002 4.80019)"/>
</clipPath>

<clipPath id="clip0_1_382">
<rect width="38.4" height="38.4" fill="white" transform="translate(4.79999 4.79999)"/>
</clipPath>

<linearGradient id="paint0_linear_1_783" x1="17.4017" y1="-3.81112" x2="34.0661" y2="13.0393" gradientUnits="userSpaceOnUse">
<stop stop-color="#6763F7"/>
<stop offset="1" stop-color="#4A40C6"/>
</linearGradient>
<linearGradient id="paint1_linear_1_783" x1="28.4418" y1="15.9754" x2="28.4418" y2="27.3565" gradientUnits="userSpaceOnUse">
<stop stop-color="#6864F9"/>
<stop offset="1" stop-color="#493FC5"/>
</linearGradient>
<clipPath id="clip0_1_783">
<rect width="194.923" height="28" fill="white" transform="translate(0.538452)"/>
</clipPath>
</defs><symbol id="Apple" viewBox="0 0 40 24">
<rect x="0.5" y="0.5" width="39" height="23" rx="5.5" fill="white" stroke="#D5D8FF"/>
<path fill-rule="evenodd" clip-rule="evenodd" d="M11.5222 8.01604C11.2 8.41326 10.6846 8.72656 10.1692 8.6818C10.1048 8.14471 10.3571 7.57406 10.6524 7.22159C10.9745 6.81318 11.5383 6.52226 11.9947 6.49988C12.0483 7.05935 11.839 7.60763 11.5222 8.01604ZM11.9892 8.78794C11.5351 8.76071 11.1208 8.93024 10.7861 9.06718C10.5708 9.1553 10.3884 9.22992 10.2497 9.22992C10.094 9.22992 9.90405 9.15131 9.69083 9.06304C9.41145 8.94739 9.09203 8.81516 8.75708 8.82151C7.98931 8.8327 7.27523 9.28587 6.8833 10.0076C6.07795 11.451 6.67391 13.5882 7.45241 14.7631C7.83361 15.3449 8.28997 15.9827 8.8913 15.9603C9.15585 15.9499 9.34615 15.8658 9.54309 15.7787C9.76983 15.6784 10.0054 15.5743 10.3731 15.5743C10.7282 15.5743 10.9534 15.6757 11.1696 15.7731C11.3752 15.8657 11.5726 15.9546 11.8657 15.9491C12.4885 15.9379 12.8805 15.3673 13.2617 14.7854C13.673 14.161 13.8538 13.5515 13.8812 13.459L13.8845 13.4483C13.8838 13.4476 13.8787 13.4452 13.8698 13.4409L13.8698 13.4409C13.7322 13.3753 12.6812 12.8739 12.6711 11.5293C12.661 10.4008 13.5048 9.82896 13.6376 9.73895C13.6457 9.73347 13.6511 9.72977 13.6536 9.72785C13.1167 8.89984 12.2791 8.81032 11.9892 8.78794ZM16.3004 15.8878V7.16565H19.4413C21.0627 7.16565 22.1956 8.32934 22.1956 10.0301C22.1956 11.7309 21.0412 12.9058 19.3983 12.9058H17.5997V15.8878H16.3004ZM17.5997 8.30713H19.0977C20.2252 8.30713 20.8694 8.93373 20.8694 10.0359C20.8694 11.138 20.2252 11.7702 19.0923 11.7702H17.5997V8.30713ZM26.4856 14.8414C26.142 15.5239 25.385 15.9547 24.5689 15.9547C23.3609 15.9547 22.5179 15.205 22.5179 14.0749C22.5179 12.956 23.334 12.3126 24.8427 12.2175L26.4642 12.1168V11.6356C26.4642 10.9251 26.0185 10.5391 25.2239 10.5391C24.5689 10.5391 24.0911 10.8915 23.9944 11.4286H22.824C22.8616 10.2985 23.8817 9.47607 25.2615 9.47607C26.7487 9.47607 27.7151 10.2873 27.7151 11.5461V15.8876H26.5125V14.8414H26.4856ZM24.9175 14.9197C24.2249 14.9197 23.7847 14.5728 23.7847 14.0413C23.7847 13.493 24.2088 13.1741 25.0195 13.1238L26.4638 13.0287V13.521C26.4638 14.3378 25.798 14.9197 24.9175 14.9197ZM31.7043 16.2288C31.1835 17.7561 30.5876 18.2597 29.3205 18.2597C29.2239 18.2597 28.9017 18.2485 28.8265 18.2261V17.1799C28.9071 17.1911 29.1057 17.2023 29.2077 17.2023C29.7822 17.2023 30.1044 16.9505 30.303 16.2959L30.4211 15.9099L28.2198 9.55994H29.5782L31.1084 14.7126H31.1352L32.6654 9.55994H33.9862L31.7043 16.2288Z" fill="black"/>
</symbol><symbol id="BTC" viewBox="0 0 48 48">
<path fill-rule="evenodd" clip-rule="evenodd" d="M19.9457 1.0313C22.4736 -0.343768 25.5263 -0.343768 28.0542 1.0313L42.7096 9.00307C45.4402 10.4884 47.14 13.348 47.14 16.4565V31.5435C47.14 34.652 45.4402 37.5116 42.7096 38.9969L28.0542 46.9687C25.5263 48.3438 22.4736 48.3438 19.9457 46.9687L5.29033 38.9969C2.5597 37.5116 0.859894 34.652 0.859894 31.5435L0.859894 16.4565C0.859894 13.348 2.5597 10.4884 5.29033 9.00307L19.9457 1.0313Z" fill="#F7931A"/>
<g clip-path="url(#clip0_1_408)">
<path d="M24.0002 43.2002C34.6041 43.2002 43.2002 34.6041 43.2002 24.0002C43.2002 13.3963 34.6041 4.80019 24.0002 4.80019C13.3963 4.80019 4.8002 13.3963 4.8002 24.0002C4.8002 34.6041 13.3963 43.2002 24.0002 43.2002Z" fill="#F7931A"/>
<path d="M32.4385 21.624C32.8153 19.1088 30.8989 17.7564 28.2805 16.854L29.1301 13.446L27.0565 12.93L26.2285 16.248C25.6837 16.1112 25.1245 15.984 24.5665 15.8568L25.4005 12.5172L23.3269 12L22.4773 15.4068C22.0261 15.3036 21.5821 15.2028 21.1525 15.0948L21.1549 15.084L18.2941 14.37L17.7421 16.5852C17.7421 16.5852 19.2817 16.938 19.2493 16.9596C20.0893 17.1696 20.2405 17.7252 20.2153 18.1668L19.2481 22.0488C19.3057 22.0632 19.3801 22.0848 19.4641 22.1172L19.2445 22.0632L17.8885 27.5016C17.7853 27.756 17.5249 28.1388 16.9369 27.9936C16.9585 28.0236 15.4297 27.618 15.4297 27.618L14.4001 29.9916L17.1001 30.6648C17.6017 30.7908 18.0937 30.9228 18.5773 31.0464L17.7193 34.4928L19.7917 35.0088L20.6413 31.6008C21.2077 31.7532 21.7573 31.8948 22.2949 32.0292L21.4477 35.4228L23.5213 35.9388L24.3793 32.4996C27.9169 33.1692 30.5761 32.8992 31.6957 29.7C32.5981 27.1248 31.6513 25.638 29.7901 24.6696C31.1461 24.3576 32.1661 23.466 32.4385 21.624ZM27.6985 28.2696C27.0589 30.846 22.7209 29.4528 21.3145 29.1036L22.4545 24.5376C23.8609 24.8892 28.3693 25.584 27.6985 28.2696ZM28.3405 21.5868C27.7561 23.9304 24.1465 22.7388 22.9765 22.4472L24.0085 18.3072C25.1785 18.5988 28.9501 19.1424 28.3405 21.5868Z" fill="white"/>
</g>

</symbol><symbol id="ETH" viewBox="0 0 48 48">
<path fill-rule="evenodd" clip-rule="evenodd" d="M19.9457 1.0313C22.4736 -0.343768 25.5263 -0.343768 28.0542 1.0313L42.7096 9.00307C45.4402 10.4884 47.14 13.348 47.14 16.4565V31.5435C47.14 34.652 45.4402 37.5116 42.7096 38.9969L28.0542 46.9687C25.5263 48.3438 22.4736 48.3438 19.9457 46.9687L5.29033 38.9969C2.5597 37.5116 0.859894 34.652 0.859894 31.5435L0.859894 16.4565C0.859894 13.348 2.5597 10.4884 5.29033 9.00307L19.9457 1.0313Z" fill="#627EEA"/>
<g clip-path="url(#clip0_1_390)">
<path d="M24.0002 43.2002C34.6041 43.2002 43.2002 34.6041 43.2002 24.0002C43.2002 13.3963 34.6041 4.80019 24.0002 4.80019C13.3963 4.80019 4.8002 13.3963 4.8002 24.0002C4.8002 34.6041 13.3963 43.2002 24.0002 43.2002Z" fill="#627EEA"/>
<path d="M24.0005 9.60037V20.2444L32.9969 24.2644L24.0005 9.60037Z" fill="white" fill-opacity="0.602"/>
<path d="M24.598 9.60037L15.6004 24.2644L24.598 20.2444V9.60037Z" fill="white"/>
<path d="M24.0005 31.623V38.8554L33.0029 26.4006L24.0005 31.623Z" fill="white" fill-opacity="0.602"/>
<path d="M24.598 38.8554V31.6218L15.6004 26.4006L24.598 38.8554Z" fill="white"/>
<path d="M24.0005 29.6418L32.9969 24.4182L24.0005 20.4006V29.6418Z" fill="white" fill-opacity="0.2"/>
<path d="M15.6004 24.4182L24.598 29.6418V20.4006L15.6004 24.4182Z" fill="white" fill-opacity="0.602"/>
</g>

</symbol><symbol id="EUR" viewBox="0 0 24 24">
<path fill-rule="evenodd" clip-rule="evenodd" d="M9.89729 0.515652C11.2082 -0.171884 12.7913 -0.171884 14.1022 0.515652L21.7022 4.50154C23.1183 5.2442 23.9998 6.674 23.9998 8.22823V15.7718C23.9998 17.326 23.1183 18.7558 21.7022 19.4985L14.1022 23.4843C12.7913 24.1719 11.2082 24.1719 9.89729 23.4843L2.2973 19.4985C0.881244 18.7558 -0.000244141 17.326 -0.000244141 15.7718L-0.000244141 8.22823C-0.000244141 6.674 0.881243 5.2442 2.29729 4.50154L9.89729 0.515652Z" fill="#2A5ADA"/>
<path d="M13.01 16.104C13.5753 16.104 14.066 15.9653 14.482 15.688C14.9087 15.4107 15.2233 15.0107 15.426 14.488L16.354 15.016C16.0767 15.7093 15.6447 16.248 15.058 16.632C14.482 17.0053 13.7993 17.192 13.01 17.192C11.8473 17.192 10.898 16.7973 10.162 16.008C9.426 15.208 8.962 14.12 8.77 12.744H7.57V11.816H8.69V11.4C8.69 11.1547 8.69533 10.9733 8.706 10.856H7.57V9.928H8.802C8.994 8.59467 9.458 7.544 10.194 6.776C10.93 5.99733 11.8687 5.608 13.01 5.608C13.7993 5.608 14.482 5.8 15.058 6.184C15.6447 6.55733 16.0767 7.08533 16.354 7.768L15.426 8.296C14.978 7.22933 14.1727 6.696 13.01 6.696C12.1993 6.696 11.522 6.97867 10.978 7.544C10.4447 8.09867 10.0927 8.89333 9.922 9.928H13.97V10.856H9.826C9.81533 10.9733 9.81 11.1547 9.81 11.4C9.81 11.592 9.81533 11.7307 9.826 11.816H13.97V12.744H9.906C10.066 13.8213 10.4127 14.6533 10.946 15.24C11.49 15.816 12.178 16.104 13.01 16.104Z" fill="white"/>
</symbol><symbol id="Google" viewBox="0 0 40 24">
<rect x="0.5" y="0.5" width="39" height="23" rx="5.5" fill="white" stroke="#D5D8FF"/>
<path d="M19.1953 12.7851V16.2323H18.0963V7.7192H21.0111C21.359 7.71197 21.7049 7.77337 22.0289 7.89986C22.3528 8.02636 22.6484 8.21544 22.8985 8.4562C23.1512 8.68233 23.3522 8.95967 23.4882 9.26956C23.6242 9.57945 23.692 9.91472 23.6869 10.2528C23.6942 10.5928 23.6275 10.9302 23.4914 11.2421C23.3553 11.5539 23.153 11.8328 22.8985 12.0597C22.3888 12.5433 21.7597 12.7849 21.0111 12.7844H19.1953V12.7851ZM19.1953 8.7673V11.7391H21.0384C21.2404 11.745 21.4415 11.7089 21.6288 11.6331C21.816 11.5574 21.9853 11.4435 22.1258 11.2989C22.2656 11.1637 22.3767 11.0019 22.4525 10.8233C22.5284 10.6446 22.5675 10.4526 22.5675 10.2586C22.5675 10.0646 22.5284 9.87263 22.4525 9.69395C22.3767 9.51527 22.2656 9.35354 22.1258 9.21832C21.9871 9.07066 21.8184 8.95402 21.6309 8.87615C21.4434 8.79827 21.2415 8.76094 21.0384 8.76662H19.1953V8.7673Z" fill="#5F6368"/>
<path d="M26.2198 10.2177C27.0321 10.2177 27.6733 10.4337 28.1434 10.8657C28.6135 11.2977 28.8483 11.89 28.8479 12.6426V16.2325H27.7966V15.4242H27.7488C27.2938 16.0898 26.6885 16.4227 25.9331 16.4227C25.2882 16.4227 24.7487 16.2325 24.3146 15.8521C24.1063 15.6775 23.9397 15.4589 23.827 15.2121C23.7144 14.9653 23.6585 14.6967 23.6634 14.4257C23.6634 13.8229 23.8923 13.3436 24.3501 12.9877C24.8079 12.6317 25.4191 12.4533 26.1836 12.4524C26.8362 12.4524 27.3736 12.5713 27.7959 12.809V12.5591C27.7972 12.3743 27.7571 12.1916 27.6786 12.0242C27.6001 11.8568 27.4851 11.7088 27.342 11.5911C27.0514 11.3302 26.6726 11.1878 26.2812 11.1924C25.6673 11.1924 25.1815 11.4501 24.8238 11.9654L23.8559 11.3588C24.3883 10.598 25.1763 10.2177 26.2198 10.2177ZM24.7979 14.4494C24.7972 14.5886 24.8299 14.726 24.8933 14.85C24.9567 14.9741 25.0489 15.0813 25.1624 15.1627C25.4055 15.3529 25.7072 15.4537 26.0164 15.4479C26.4801 15.4472 26.9247 15.2635 27.2526 14.9371C27.6166 14.5961 27.7987 14.1961 27.7987 13.7369C27.456 13.4652 26.9782 13.3293 26.3652 13.3293C25.9187 13.3293 25.5465 13.4364 25.2484 13.6506C24.9474 13.868 24.7979 14.1322 24.7979 14.4494Z" fill="#5F6368"/>
<path d="M34.8821 10.4077L31.2123 18.8H30.0778L31.4397 15.8635L29.0266 10.4077H30.2212L31.9653 14.5919H31.9892L33.6855 10.4077H34.8821Z" fill="#5F6368"/>
<path d="M14.7545 12.0423C14.7549 11.709 14.7266 11.3763 14.6699 11.0479H10.0349V12.9314H12.6896C12.6353 13.2323 12.5203 13.519 12.3516 13.7745C12.1829 14.0299 11.964 14.2487 11.708 14.4177V15.6403H13.2924C14.22 14.7892 14.7545 13.5305 14.7545 12.0423Z" fill="#4285F4"/>
<path d="M10.0349 16.8215C11.3613 16.8215 12.478 16.3881 13.2924 15.6409L11.708 14.4182C11.2671 14.7158 10.6991 14.8856 10.0349 14.8856C8.75299 14.8856 7.6649 14.0256 7.27581 12.8668H5.64368V14.1268C6.05275 14.9368 6.68001 15.6178 7.45544 16.0936C8.23086 16.5694 9.12393 16.8214 10.0349 16.8215Z" fill="#34A853"/>
<path d="M7.27584 12.8667C7.07014 12.2595 7.07014 11.6019 7.27584 10.9946V9.73462H5.6437C5.29958 10.416 5.12036 11.1681 5.12036 11.9307C5.12036 12.6933 5.29958 13.4453 5.6437 14.1267L7.27584 12.8667Z" fill="#FBBC04"/>
<path d="M10.0349 8.97588C10.7358 8.96449 11.4131 9.228 11.9203 9.70948L13.3231 8.3136C12.4336 7.48224 11.2552 7.02581 10.0349 7.03999C9.12393 7.04004 8.23086 7.29204 7.45544 7.76786C6.68001 8.24369 6.05275 8.92461 5.64368 9.73461L7.27581 10.9946C7.6649 9.83582 8.75299 8.97588 10.0349 8.97588Z" fill="#EA4335"/>
</symbol><symbol id="LTC" viewBox="0 0 48.000000 48.000000" preserveAspectRatio="xMidYMid meet">

<g transform="translate(0.000000,48.000000) scale(0.100000,-0.100000)" fill="#000000" stroke="none">
<path d="M133 430 c-51 -28 -99 -60 -108 -72 -11 -17 -15 -48 -15 -119 0 -120
5 -128 134 -195 l96 -49 96 50 c129 67 134 74 134 195 0 80 -3 102 -19 121
-19 25 -188 119 -212 119 -8 0 -55 -23 -106 -50z m147 -57 c0 -5 -7 -29 -15
-55 -12 -41 -12 -48 0 -48 9 0 12 -6 9 -15 -4 -8 -12 -15 -20 -15 -7 0 -17
-15 -22 -32 l-8 -33 53 -3 c45 -3 54 -6 51 -20 -3 -14 -18 -17 -90 -20 l-87
-3 11 37 c7 27 7 39 -2 44 -15 9 -5 30 14 30 7 0 18 24 25 53 19 73 28 87 56
87 14 0 25 -3 25 -7z"/>
</g>
</symbol><symbol id="Mastercard" viewBox="0 0 40 24">
<rect x="0.5" y="0.5" width="39" height="23" rx="5.5" fill="white" stroke="#D5D8FF"/>
<path d="M23.0283 6.52881H16.9717V17.4715H23.0283V6.52881Z" fill="#FF7400"/>
<path d="M17.3563 12.0002C17.3563 9.77683 18.3946 7.80483 19.9904 6.52883C18.8176 5.60083 17.337 5.04016 15.7219 5.04016C11.8957 5.04016 8.80005 8.15283 8.80005 12.0002C8.80005 15.8475 11.8957 18.9602 15.7219 18.9602C17.337 18.9602 18.8176 18.3995 19.9904 17.4715C18.3946 16.2148 17.3563 14.2235 17.3563 12.0002Z" fill="#EC0026"/>
<path d="M31.1998 12.0002C31.1998 15.8475 28.1042 18.9602 24.2779 18.9602C22.6628 18.9602 21.1823 18.3995 20.0094 17.4715C21.6245 16.1955 22.6436 14.2235 22.6436 12.0002C22.6436 9.77683 21.6053 7.80483 20.0094 6.52883C21.1823 5.60083 22.6628 5.04016 24.2779 5.04016C28.1042 5.04016 31.1998 8.17216 31.1998 12.0002Z" fill="#F7AB26"/>
</symbol><symbol id="RUB" viewBox="0 0 24 24">
<path fill-rule="evenodd" clip-rule="evenodd" d="M9.89729 0.515652C11.2082 -0.171884 12.7913 -0.171884 14.1022 0.515652L21.7022 4.50154C23.1183 5.2442 23.9998 6.674 23.9998 8.22823V15.7718C23.9998 17.326 23.1183 18.7558 21.7022 19.4985L14.1022 23.4843C12.7913 24.1719 11.2082 24.1719 9.89729 23.4843L2.2973 19.4985C0.881244 18.7558 -0.000244141 17.326 -0.000244141 15.7718L-0.000244141 8.22823C-0.000244141 6.674 0.881243 5.2442 2.29729 4.50154L9.89729 0.515652Z" fill="#2A5ADA"/>
<path d="M13.0413 12.52H10.1613V14.024H14.3213V14.952H10.1613V17H9.04125V14.952H7.60125V14.024H9.04125V12.52H7.60125V11.464H9.04125V5.8H13.0413C13.9693 5.8 14.7586 6.13067 15.4093 6.792C16.0706 7.44267 16.4013 8.232 16.4013 9.16C16.4013 10.0773 16.0706 10.8667 15.4093 11.528C14.7586 12.1893 13.9693 12.52 13.0413 12.52ZM10.1613 6.856V11.464H13.0413C13.6599 11.464 14.1879 11.24 14.6253 10.792C15.0626 10.3333 15.2812 9.78933 15.2812 9.16C15.2812 8.52 15.0626 7.976 14.6253 7.528C14.1879 7.08 13.6599 6.856 13.0413 6.856H10.1613Z" fill="white"/>
</symbol><symbol id="TRC" viewBox="0 0 48 48">
<path fill-rule="evenodd" clip-rule="evenodd" d="M19.9457 1.0313C22.4736 -0.343768 25.5263 -0.343768 28.0542 1.0313L42.7096 9.00307C45.4402 10.4884 47.14 13.348 47.14 16.4565V31.5435C47.14 34.652 45.4402 37.5116 42.7096 38.9969L28.0542 46.9687C25.5263 48.3438 22.4736 48.3438 19.9457 46.9687L5.29033 38.9969C2.5597 37.5116 0.859894 34.652 0.859894 31.5435L0.859894 16.4565C0.859894 13.348 2.5597 10.4884 5.29033 9.00307L19.9457 1.0313Z" fill="#2A5ADA"/>
<path fill-rule="evenodd" clip-rule="evenodd" d="M19.9458 1.0313C22.4737 -0.343768 25.5264 -0.343768 28.0543 1.0313L42.7097 9.00307C45.4403 10.4884 47.1401 13.348 47.1401 16.4565V31.5435C47.1401 34.652 45.4403 37.5116 42.7097 38.9969L28.0543 46.9687C25.5264 48.3438 22.4737 48.3438 19.9458 46.9687L5.29042 38.9969C2.55979 37.5116 0.859985 34.652 0.859985 31.5435L0.859985 16.4565C0.859985 13.348 2.55979 10.4884 5.29042 9.00307L19.9458 1.0313Z" fill="#26A17B"/>
<g clip-path="url(#clip0_1_382)">
<path d="M24 43.2C34.6039 43.2 43.2 34.6039 43.2 24C43.2 13.3961 34.6039 4.79999 24 4.79999C13.3961 4.79999 4.79999 13.3961 4.79999 24C4.79999 34.6039 13.3961 43.2 24 43.2Z" fill="#26A17B"/>
<path fill-rule="evenodd" clip-rule="evenodd" d="M25.9464 25.8768V25.8744C25.8144 25.884 25.134 25.9248 23.616 25.9248C22.404 25.9248 21.5508 25.8888 21.2508 25.8744V25.878C16.5852 25.6728 13.1028 24.8604 13.1028 23.8884C13.1028 22.9176 16.5852 22.1052 21.2508 21.8964V25.0692C21.5556 25.0908 22.4292 25.1424 23.6364 25.1424C25.0848 25.1424 25.8108 25.0824 25.9464 25.0704V21.8988C30.6024 22.1064 34.0764 22.9188 34.0764 23.8884C34.0764 24.8604 30.6024 25.6704 25.9464 25.8768ZM25.9464 21.5688V18.7296H32.4432V14.4H14.754V18.7296H21.2508V21.5676C15.9708 21.81 12 22.8564 12 24.1092C12 25.362 15.9708 26.4072 21.2508 26.6508V35.7492H25.9464V26.6484C31.218 26.406 35.1792 25.3608 35.1792 24.1092C35.1792 22.8576 31.218 21.8124 25.9464 21.5688Z" fill="white"/>
</g>

</symbol><symbol id="UAH" viewBox="0 0 24 24">
<path fill-rule="evenodd" clip-rule="evenodd" d="M9.89729 0.515652C11.2082 -0.171884 12.7913 -0.171884 14.1022 0.515652L21.7022 4.50154C23.1183 5.2442 23.9998 6.674 23.9998 8.22823V15.7718C23.9998 17.326 23.1183 18.7558 21.7022 19.4985L14.1022 23.4843C12.7913 24.1719 11.2082 24.1719 9.89729 23.4843L2.2973 19.4985C0.881244 18.7558 -0.000244141 17.326 -0.000244141 15.7718L-0.000244141 8.22823C-0.000244141 6.674 0.881243 5.2442 2.29729 4.50154L9.89729 0.515652Z" fill="#2A5ADA"/>
<path d="M12.2494 17.16C11.4174 17.16 10.7134 17.048 10.1374 16.824C9.56138 16.6 9.11871 16.2693 8.80938 15.832C8.51071 15.384 8.36138 14.8187 8.36138 14.136C8.36138 13.9333 8.37738 13.7413 8.40938 13.56C8.44138 13.368 8.48404 13.192 8.53738 13.032H7.78538V12.008H9.12938C9.34271 11.7947 9.62538 11.6027 9.97738 11.432C10.34 11.2507 10.7134 11.0907 11.0974 10.952C11.492 10.8133 11.8387 10.696 12.1374 10.6C12.436 10.4933 12.628 10.4187 12.7134 10.376H7.78538V9.352H13.8974C13.9827 9.20267 14.0414 9.048 14.0734 8.888C14.116 8.728 14.1374 8.52533 14.1374 8.28C14.1374 7.94933 14.0627 7.66667 13.9134 7.432C13.764 7.18667 13.5347 7 13.2254 6.872C12.916 6.744 12.516 6.68 12.0254 6.68C11.6734 6.68 11.332 6.712 11.0014 6.776C10.6814 6.84 10.3774 6.92533 10.0894 7.032C9.81204 7.128 9.55071 7.23467 9.30538 7.352L8.90538 6.088C9.31071 5.896 9.80671 5.736 10.3934 5.608C10.98 5.48 11.5507 5.416 12.1054 5.416C12.8307 5.416 13.4494 5.51733 13.9614 5.72C14.484 5.912 14.884 6.20533 15.1614 6.6C15.4494 6.99467 15.5934 7.496 15.5934 8.104C15.5934 8.328 15.5774 8.552 15.5454 8.776C15.5134 8.98933 15.4547 9.18133 15.3694 9.352H16.2494V10.376H14.8574C14.6867 10.5467 14.42 10.7227 14.0574 10.904C13.6947 11.0747 13.316 11.2347 12.9214 11.384C12.5267 11.5333 12.1694 11.6613 11.8494 11.768C11.5294 11.8747 11.3214 11.9547 11.2254 12.008H16.2494V13.032H10.0254C9.94004 13.192 9.88138 13.3413 9.84938 13.48C9.81738 13.6187 9.80138 13.8107 9.80138 14.056C9.80138 14.472 9.89738 14.8187 10.0894 15.096C10.2814 15.3627 10.5694 15.5653 10.9534 15.704C11.3374 15.8427 11.812 15.912 12.3774 15.912C12.9854 15.912 13.572 15.8373 14.1374 15.688C14.7134 15.528 15.1934 15.3627 15.5774 15.192V16.488C15.2147 16.6587 14.7294 16.8133 14.1214 16.952C13.5134 17.0907 12.8894 17.16 12.2494 17.16Z" fill="white"/>
</symbol><symbol id="USD" viewBox="0 0 24 24">
<path fill-rule="evenodd" clip-rule="evenodd" d="M9.89732 0.515652C11.2083 -0.171884 12.7913 -0.171884 14.1022 0.515652L21.7022 4.50154C23.1183 5.2442 23.9998 6.674 23.9998 8.22823V15.7718C23.9998 17.326 23.1183 18.7558 21.7022 19.4985L14.1022 23.4843C12.7913 24.1719 11.2083 24.1719 9.89733 23.4843L2.29733 19.4985C0.881275 18.7558 -0.000213623 17.326 -0.000213623 15.7718L-0.000213623 8.22823C-0.000213623 6.674 0.881274 5.2442 2.29732 4.50154L9.89732 0.515652Z" fill="#2A5ADA"/>
<path d="M15.7616 14.088C15.7616 14.92 15.4789 15.6187 14.9136 16.184C14.3482 16.7387 13.6176 17.064 12.7216 17.16V18.6H11.7616V17.176C10.8976 17.1227 10.1616 16.8933 9.55356 16.488C8.94556 16.0827 8.50823 15.5387 8.24156 14.856L9.20156 14.296C9.59623 15.384 10.4496 15.9813 11.7616 16.088V11.672C11.2816 11.5013 10.8922 11.3467 10.5936 11.208C10.3056 11.0693 10.0069 10.8827 9.69756 10.648C9.38823 10.4133 9.1589 10.1253 9.00956 9.784C8.8709 9.44267 8.80156 9.04267 8.80156 8.584C8.80156 7.752 9.0789 7.07467 9.63356 6.552C10.1989 6.01867 10.9082 5.70933 11.7616 5.624V4.2H12.7216V5.64C13.3509 5.71467 13.9109 5.928 14.4016 6.28C14.8922 6.632 15.2656 7.10667 15.5216 7.704L14.5776 8.232C14.2362 7.37867 13.6176 6.88267 12.7216 6.744V10.904C13.1909 11.064 13.5802 11.2187 13.8896 11.368C14.1989 11.5173 14.5082 11.7147 14.8176 11.96C15.1376 12.2053 15.3722 12.504 15.5216 12.856C15.6816 13.208 15.7616 13.6187 15.7616 14.088ZM9.92156 8.584C9.92156 9.07467 10.0709 9.464 10.3696 9.752C10.6682 10.04 11.1322 10.3067 11.7616 10.552V6.728C11.2069 6.792 10.7589 6.98933 10.4176 7.32C10.0869 7.64 9.92156 8.06133 9.92156 8.584ZM12.7216 16.072C13.3189 15.9867 13.7882 15.768 14.1296 15.416C14.4709 15.064 14.6416 14.6213 14.6416 14.088C14.6416 13.5653 14.4816 13.1547 14.1616 12.856C13.8416 12.5467 13.3616 12.264 12.7216 12.008V16.072Z" fill="white"/>
</symbol><symbol id="Visa" viewBox="0 0 40 24">
<rect x="0.5" y="0.5" width="39" height="23" rx="5.5" fill="white" stroke="#D5D8FF"/>
<path d="M18.0053 16.6616H15.5815L17.0975 7.36853H19.5211L18.0053 16.6616Z" fill="#1E46D1"/>
<path d="M26.7918 7.59572C26.3137 7.40768 25.5555 7.20007 24.6179 7.20007C22.2244 7.20007 20.5389 8.46544 20.5285 10.2745C20.5087 11.6093 21.7353 12.3506 22.6527 12.7957C23.5904 13.2505 23.9092 13.5473 23.9092 13.9527C23.8996 14.5752 23.1515 14.8622 22.4537 14.8622C21.486 14.8622 20.9675 14.7143 20.1796 14.3679L19.8604 14.2194L19.5212 16.3055C20.0897 16.5622 21.137 16.7901 22.2244 16.8001C24.7675 16.8001 26.4232 15.5543 26.4428 13.6264C26.4525 12.5685 25.8048 11.7579 24.4083 11.0955C23.5606 10.6703 23.0415 10.3836 23.0415 9.94854C23.0514 9.55303 23.4806 9.14793 24.4375 9.14793C25.2254 9.12809 25.8044 9.31586 26.2429 9.50376L26.4621 9.60244L26.7918 7.59572Z" fill="#1E46D1"/>
<path d="M30.0131 13.3694C30.2127 12.8355 30.9808 10.7693 30.9808 10.7693C30.9707 10.7891 31.18 10.2255 31.2996 9.87956L31.469 10.6803C31.469 10.6803 31.928 12.9048 32.0277 13.3694C31.6489 13.3694 30.4918 13.3694 30.0131 13.3694ZM33.0049 7.36853H31.1301C30.552 7.36853 30.1128 7.53646 29.8633 8.13958L26.2632 16.6615H28.8063C28.8063 16.6615 29.225 15.5145 29.315 15.2674C29.594 15.2674 32.068 15.2674 32.4269 15.2674C32.4965 15.5937 32.7161 16.6615 32.7161 16.6615H34.9602L33.0049 7.36853Z" fill="#1E46D1"/>
<path d="M13.5572 7.36853L11.1836 13.7055L10.9242 12.4203C10.4854 10.9373 9.1091 9.32611 7.57324 8.52497L9.7474 16.6517H12.3104L16.1201 7.36853H13.5572Z" fill="#1E46D1"/>
<path d="M8.9796 7.36853H5.08006L5.04016 7.5563C8.08205 8.32748 10.0966 10.1864 10.9243 12.4207L10.0766 8.1497C9.93706 7.55617 9.50816 7.38811 8.9796 7.36853Z" fill="#1E46D1"/>
</symbol><symbol id="logo" viewBox="0 0 196 28">
<g clip-path="url(#clip0_1_783)">
<path d="M67.6682 18.6313C67.8206 18.63 67.9714 18.662 68.1108 18.7249C68.2452 18.7864 68.3679 18.8717 68.4736 18.9767C68.5792 19.0826 68.6637 19.2085 68.7225 19.3475C68.7836 19.4936 68.8146 19.6511 68.8137 19.81C68.8126 19.9681 68.7804 20.1242 68.719 20.2691C68.6576 20.414 68.5684 20.5446 68.4566 20.6531C66.9243 21.945 65.0003 22.6452 63.0182 22.6321C61.8816 22.6331 60.7561 22.4039 59.7059 21.9575C58.6556 21.5111 57.7014 20.8563 56.8978 20.0307C56.0941 19.205 55.4568 18.2246 55.0223 17.1456C54.5879 16.0666 54.3648 14.9101 54.3658 13.7424C54.3688 11.3859 55.2814 9.12676 56.9034 7.4606C58.5255 5.79445 60.7245 4.8573 63.0182 4.85472C65.0484 4.84817 67.0146 5.58427 68.5648 6.93125C68.6679 7.03722 68.7482 7.16423 68.8006 7.30407C68.8529 7.44392 68.8762 7.59349 68.8688 7.74313C68.8701 7.90303 68.8404 8.06159 68.7814 8.20957C68.7249 8.34902 68.6423 8.47569 68.5382 8.58233C68.4334 8.69067 68.3079 8.7757 68.1697 8.83213C67.9631 8.92079 67.7356 8.94493 67.5157 8.90155C67.2957 8.85816 67.0931 8.74917 66.9331 8.58818C66.389 8.14559 65.7764 7.79991 65.121 7.56553C64.4446 7.32609 63.7336 7.206 63.0182 7.21033C62.1832 7.20982 61.3563 7.37844 60.5849 7.70655C59.8134 8.03466 59.1124 8.51582 58.5221 9.12251C57.9318 9.7292 57.4637 10.4495 57.1445 11.2422C56.8254 12.035 56.6616 12.8846 56.6623 13.7424C56.6625 14.9739 57.0014 16.1802 57.6398 17.2225C58.2782 18.2647 59.1902 19.1005 60.2707 19.6334C61.3512 20.1664 62.5564 20.3749 63.7472 20.2349C64.938 20.0948 66.0661 19.612 67.0015 18.842C67.1988 18.7062 67.4307 18.6329 67.6682 18.6313Z" fill="#1A1C1E"/>
<path d="M73.2738 11.3439V11.5644C73.8031 11.1275 74.3986 10.7827 75.0366 10.5437C75.6885 10.3034 76.3765 10.1832 77.0691 10.1885C77.4107 10.1897 77.752 10.2119 78.091 10.2549C78.4346 10.2932 78.7725 10.3732 79.0978 10.493C79.3803 10.5943 79.6391 10.7552 79.8576 10.9653C79.9587 11.0662 80.038 11.1879 80.0904 11.3224C80.1428 11.4569 80.167 11.6012 80.1615 11.7459C80.1621 11.9025 80.1303 12.0575 80.0684 12.2007C80.0092 12.3386 79.9269 12.4647 79.8253 12.5734C79.7238 12.6805 79.6023 12.7654 79.4682 12.8232C79.3278 12.8825 79.1773 12.9123 79.0256 12.911C78.8604 12.9039 78.6983 12.8627 78.5488 12.79C78.0767 12.6009 77.5738 12.5061 77.0672 12.511C76.5581 12.5081 76.0538 12.6123 75.5855 12.8174C75.1359 13.0135 74.7271 13.2964 74.3812 13.6507C74.0353 14.006 73.7599 14.4269 73.5701 14.89C73.3693 15.3708 73.2677 15.8891 73.2719 16.4123V21.4865C73.2714 21.7929 73.1528 22.0867 72.9421 22.3036C72.7313 22.5205 72.4456 22.6428 72.1474 22.6438C71.9976 22.6468 71.8489 22.6183 71.7104 22.5599C71.5718 22.5015 71.4464 22.4144 71.342 22.3042C71.2353 22.1984 71.1509 22.0713 71.0941 21.9306C71.0372 21.7899 71.0091 21.6388 71.0114 21.4865V11.3439C71.0471 11.0618 71.1815 10.8027 71.3895 10.615C71.5974 10.4273 71.8648 10.3238 72.1417 10.3238C72.4185 10.3238 72.6859 10.4273 72.8939 10.615C73.1018 10.8027 73.2362 11.0618 73.2719 11.3439H73.2738Z" fill="#1A1C1E"/>
<path d="M86.0825 21.4747L82.1903 11.8649C82.1193 11.7009 82.0824 11.5234 82.082 11.3438C82.0814 11.1911 82.1105 11.0399 82.1675 10.8989C82.224 10.7608 82.3045 10.6345 82.405 10.5261C82.5063 10.4189 82.6278 10.3339 82.7621 10.2763C82.9347 10.2052 83.1213 10.1776 83.3064 10.196C83.4915 10.2143 83.6696 10.278 83.8258 10.3817C84.0271 10.521 84.1816 10.7207 84.2684 10.9535L87.3077 18.4087L90.3469 10.932C90.4261 10.7218 90.557 10.5362 90.7269 10.3934C90.9282 10.242 91.1751 10.1687 91.424 10.1865C91.5757 10.1852 91.7262 10.2151 91.8666 10.2743C92.0011 10.3314 92.1227 10.4165 92.2237 10.5242C92.3253 10.6328 92.4076 10.759 92.4668 10.8969C92.5275 11.0369 92.5586 11.1886 92.558 11.3419C92.5546 11.5221 92.5145 11.6996 92.4402 11.863L86.2211 27.1852C86.131 27.4096 85.9817 27.6036 85.79 27.7453C85.5747 27.9044 85.3116 27.9799 85.0472 27.9585C84.7829 27.9371 84.5346 27.82 84.3463 27.6282C84.2411 27.5186 84.1586 27.3883 84.1037 27.2451C84.0489 27.1019 84.0228 26.9487 84.0272 26.7949C84.027 26.6184 84.0639 26.444 84.1354 26.2835L86.0825 21.4747Z" fill="#1A1C1E"/>
<path d="M100.935 22.6321C99.5505 22.6572 98.2029 22.1726 97.1359 21.266V26.8105C97.1402 26.9646 97.113 27.1178 97.0561 27.2603C96.9992 27.4029 96.9137 27.5316 96.8053 27.638C96.6992 27.7451 96.5732 27.8293 96.4349 27.8856C96.2966 27.9419 96.1487 27.9692 95.9999 27.9659C95.8511 27.9705 95.7028 27.9438 95.5644 27.8873C95.4259 27.8309 95.3002 27.7459 95.1948 27.6377C95.0895 27.5295 95.0068 27.4003 94.9519 27.2581C94.897 27.1158 94.8709 26.9635 94.8754 26.8105V16.4103C94.8891 14.9769 95.3823 13.5921 96.2723 12.4881C97.1622 11.3841 98.3947 10.6283 99.7628 10.3475C101.131 10.0667 102.552 10.278 103.786 10.9459C105.02 11.6138 105.994 12.6977 106.542 14.0157C106.848 14.7748 107.003 15.5888 107 16.4103C107.016 17.2296 106.866 18.0433 106.561 18.8004C106.255 19.5574 105.801 20.2413 105.226 20.8093C104.661 21.3929 103.991 21.857 103.252 22.1754C102.517 22.4837 101.729 22.6389 100.935 22.6321ZM97.1359 16.4103C97.1331 16.9294 97.234 17.4435 97.4322 17.9209C97.6225 18.3823 97.8957 18.8027 98.2376 19.1602C98.5823 19.5152 98.9897 19.7994 99.4381 19.9974C99.9084 20.203 100.414 20.309 100.925 20.309C101.437 20.309 101.942 20.203 102.413 19.9974C102.863 19.7982 103.272 19.512 103.617 19.1543C103.961 18.7969 104.237 18.3766 104.43 17.915C104.626 17.4385 104.726 16.9265 104.726 16.4093C104.726 15.8922 104.626 15.3802 104.43 14.9037C104.237 14.4421 103.961 14.0218 103.617 13.6644C103.272 13.3067 102.863 13.0205 102.413 12.8213C101.942 12.6157 101.437 12.5097 100.925 12.5097C100.414 12.5097 99.9084 12.6157 99.4381 12.8213C98.9897 13.0193 98.5823 13.3035 98.2376 13.6585C97.8957 14.0159 97.6225 14.4364 97.4322 14.8978C97.2351 15.3762 97.1356 15.8909 97.1397 16.4103H97.1359Z" fill="#1A1C1E"/>
<path d="M110.444 10.1866H110.953V6.01009C110.951 5.85784 110.979 5.70675 111.036 5.56612C111.093 5.42549 111.177 5.2983 111.284 5.19236C111.497 4.97663 111.784 4.85571 112.083 4.85571C112.383 4.85571 112.67 4.97663 112.883 5.19236C112.989 5.2983 113.074 5.42549 113.131 5.56612C113.187 5.70675 113.216 5.85784 113.214 6.01009V10.1866H114.564C114.711 10.1834 114.858 10.2118 114.994 10.27C115.13 10.3281 115.253 10.4147 115.354 10.5242C115.459 10.6308 115.542 10.7583 115.598 10.8989C115.654 11.0394 115.682 11.1902 115.679 11.3419C115.682 11.4953 115.655 11.6476 115.599 11.7898C115.543 11.932 115.46 12.0612 115.354 12.1694C115.253 12.279 115.13 12.3655 114.994 12.4237C114.858 12.4818 114.711 12.5102 114.564 12.5071H113.214V18.0965C113.214 19.5707 113.934 20.3077 115.375 20.3077C115.522 20.3051 115.669 20.3337 115.805 20.3918C115.941 20.4499 116.063 20.5362 116.165 20.6453C116.376 20.8645 116.494 21.16 116.494 21.468C116.494 21.7759 116.376 22.0714 116.165 22.2906C116.064 22.4004 115.941 22.4872 115.805 22.5457C115.669 22.6041 115.523 22.6329 115.375 22.6302C112.427 22.6302 110.953 21.1189 110.953 18.0965V12.509H110.444C110.298 12.5109 110.153 12.482 110.019 12.4239C109.884 12.3658 109.762 12.2798 109.661 12.1714C109.554 12.064 109.469 11.9352 109.413 11.7929C109.356 11.6505 109.328 11.4977 109.331 11.3439C109.329 11.1916 109.357 11.0404 109.414 10.8998C109.47 10.7591 109.555 10.632 109.661 10.5262C109.762 10.4174 109.884 10.331 110.018 10.2726C110.153 10.2142 110.298 10.1849 110.444 10.1866Z" fill="#1A1C1E"/>
<path d="M130.175 16.4103C130.19 17.2296 130.04 18.0433 129.735 18.8003C129.43 19.5573 128.975 20.2413 128.4 20.8092C127.265 21.9762 125.724 22.6318 124.118 22.6318C122.512 22.6318 120.971 21.9762 119.835 20.8092C118.7 19.6423 118.061 18.0596 118.061 16.4093C118.061 14.759 118.7 13.1763 119.835 12.0094C120.972 10.8432 122.512 10.1882 124.118 10.1882C125.724 10.1882 127.264 10.8432 128.4 12.0094C128.971 12.5812 129.423 13.2656 129.73 14.0215C130.026 14.7811 130.177 15.5921 130.175 16.4103ZM124.119 12.507C123.605 12.5024 123.097 12.6088 122.626 12.8193C122.177 13.0173 121.77 13.3015 121.425 13.6565C121.083 14.0139 120.81 14.4344 120.62 14.8958C120.424 15.3744 120.323 15.8883 120.323 16.4073C120.323 16.9264 120.424 17.4403 120.62 17.9189C120.81 18.3803 121.083 18.8007 121.425 19.1582C121.77 19.5132 122.177 19.7974 122.626 19.9954C123.096 20.201 123.602 20.307 124.113 20.307C124.624 20.307 125.13 20.201 125.6 19.9954C126.051 19.7962 126.46 19.51 126.805 19.1523C127.149 18.7953 127.424 18.3749 127.616 17.913C127.813 17.4368 127.914 16.9247 127.914 16.4073C127.914 15.89 127.813 15.3779 127.616 14.9017C127.424 14.4398 127.149 14.0194 126.805 13.6624C126.46 13.3047 126.051 13.0185 125.6 12.8193C125.133 12.6103 124.628 12.5046 124.119 12.509V12.507Z" fill="#1A1C1E"/>
<path d="M145.879 18.6313C146.031 18.63 146.182 18.662 146.321 18.7249C146.456 18.7864 146.578 18.8717 146.684 18.9767C146.79 19.0826 146.874 19.2085 146.933 19.3475C146.994 19.4936 147.025 19.6511 147.024 19.81C147.023 19.9681 146.991 20.1242 146.929 20.2691C146.868 20.414 146.779 20.5446 146.667 20.6531C145.135 21.945 143.211 22.6452 141.229 22.6321C140.092 22.6334 138.966 22.4043 137.916 21.958C136.866 21.5117 135.912 20.8569 135.108 20.0311C134.305 19.2054 133.668 18.2248 133.233 17.1457C132.799 16.0666 132.577 14.9101 132.578 13.7424C132.58 11.3859 133.492 9.12647 135.114 7.46015C136.736 5.79383 138.935 4.85679 141.229 4.85472C143.259 4.84817 145.225 5.58427 146.775 6.93125C146.878 7.03722 146.959 7.16423 147.011 7.30407C147.063 7.44392 147.087 7.59349 147.079 7.74313C147.08 7.90303 147.051 8.06159 146.992 8.20957C146.935 8.34902 146.853 8.47569 146.749 8.58233C146.644 8.69067 146.518 8.7757 146.38 8.83213C146.173 8.92079 145.946 8.94493 145.726 8.90155C145.506 8.85816 145.304 8.74917 145.144 8.58818C144.599 8.14559 143.987 7.79991 143.331 7.56553C142.655 7.32609 141.944 7.206 141.229 7.21033C140.393 7.20931 139.566 7.37755 138.794 7.70543C138.022 8.03331 137.321 8.51439 136.73 9.12113C136.139 9.72787 135.671 10.4484 135.352 11.2413C135.032 12.0343 134.868 12.8842 134.869 13.7424C134.869 14.9739 135.208 16.1802 135.846 17.2225C136.485 18.2647 137.397 19.1005 138.477 19.6334C139.558 20.1664 140.763 20.3749 141.954 20.2349C143.145 20.0948 144.273 19.612 145.208 18.842C145.407 18.7054 145.64 18.6321 145.879 18.6313Z" fill="#1A1C1E"/>
<path d="M149.159 21.4747V6.02175C149.156 5.86863 149.182 5.71637 149.237 5.57394C149.292 5.4315 149.374 5.30175 149.478 5.19231C149.693 4.97585 149.983 4.85461 150.284 4.85461C150.585 4.85461 150.874 4.97585 151.089 5.19231C151.193 5.30175 151.275 5.4315 151.33 5.57394C151.385 5.71637 151.411 5.86863 151.408 6.02175V20.3096H151.925C152.199 20.3463 152.452 20.4843 152.634 20.698C152.817 20.9117 152.918 21.1864 152.918 21.4708C152.918 21.7553 152.817 22.03 152.634 22.2437C152.452 22.4574 152.199 22.5954 151.925 22.6321H150.272C150.125 22.6345 149.979 22.6056 149.843 22.5472C149.708 22.4887 149.585 22.402 149.484 22.2925C149.379 22.1858 149.296 22.0584 149.24 21.9178C149.184 21.7773 149.157 21.6265 149.159 21.4747Z" fill="#1A1C1E"/>
<path d="M167.233 16.4103C167.249 17.2294 167.099 18.043 166.794 18.7999C166.489 19.5569 166.035 20.241 165.461 20.8093C164.899 21.3871 164.231 21.8455 163.496 22.1582C162.761 22.4709 161.974 22.6318 161.178 22.6318C160.383 22.6318 159.596 22.4709 158.861 22.1582C158.126 21.8455 157.458 21.3871 156.896 20.8093C156.334 20.2315 155.887 19.5455 155.583 18.7906C155.279 18.0356 155.122 17.2265 155.122 16.4094C155.122 15.5922 155.279 14.7831 155.583 14.0281C155.887 13.2732 156.334 12.5872 156.896 12.0094C158.032 10.8433 159.572 10.1882 161.178 10.1882C162.784 10.1882 164.325 10.8433 165.461 12.0094C166.032 12.5813 166.484 13.2657 166.791 14.0215C167.087 14.781 167.237 15.5922 167.233 16.4103ZM161.177 12.5071C160.665 12.5027 160.157 12.6091 159.686 12.8193C159.238 13.0169 158.83 13.3012 158.486 13.6566C158.144 14.014 157.871 14.4344 157.68 14.8959C157.484 15.3742 157.382 15.8881 157.382 16.4074C157.382 16.9267 157.484 17.4407 157.68 17.9189C157.871 18.3804 158.144 18.8008 158.486 19.1582C158.83 19.5137 159.238 19.7979 159.686 19.9955C160.156 20.2016 160.662 20.3078 161.173 20.3078C161.684 20.3078 162.189 20.2016 162.659 19.9955C163.11 19.7963 163.519 19.5101 163.865 19.1524C164.209 18.7949 164.484 18.3745 164.676 17.9131C164.873 17.4369 164.975 16.9248 164.975 16.4074C164.975 15.89 164.873 15.378 164.676 14.9017C164.484 14.4403 164.209 14.02 163.865 13.6624C163.519 13.3047 163.11 13.0185 162.659 12.8193C162.192 12.6104 161.687 12.5046 161.177 12.509V12.5071Z" fill="#1A1C1E"/>
<path d="M179.772 22.6321C179.623 22.6371 179.476 22.6099 179.338 22.5525C179.2 22.495 179.076 22.4084 178.972 22.2983C178.766 22.0812 178.649 21.7901 178.648 21.4865C178.176 21.8719 177.642 22.1674 177.069 22.3588C176.484 22.5453 175.875 22.6375 175.263 22.6321C174.511 22.6361 173.767 22.4786 173.078 22.1695C171.725 21.5734 170.648 20.466 170.067 19.0762C169.767 18.3685 169.613 17.604 169.617 16.8318V11.3438C169.653 11.0618 169.787 10.8027 169.995 10.615C170.203 10.4273 170.471 10.3237 170.747 10.3237C171.024 10.3237 171.292 10.4273 171.5 10.615C171.708 10.8027 171.842 11.0618 171.878 11.3438V16.8318C171.875 17.2973 171.965 17.7584 172.144 18.1863C172.485 19.0212 173.132 19.6854 173.944 20.0364C174.36 20.2167 174.807 20.3096 175.258 20.3096C175.709 20.3096 176.156 20.2167 176.571 20.0364C176.975 19.8598 177.342 19.6054 177.652 19.287C177.961 18.9691 178.209 18.5944 178.384 18.1824C178.56 17.7555 178.65 17.2958 178.648 16.8318V11.3438C178.683 11.0618 178.818 10.8027 179.026 10.615C179.234 10.4273 179.501 10.3237 179.778 10.3237C180.055 10.3237 180.322 10.4273 180.53 10.615C180.738 10.8027 180.872 11.0618 180.908 11.3438V21.4747C180.91 21.627 180.882 21.7782 180.825 21.9189C180.769 22.0595 180.684 22.1867 180.578 22.2925C180.473 22.4027 180.348 22.4897 180.209 22.5481C180.071 22.6065 179.922 22.6351 179.772 22.6321Z" fill="#1A1C1E"/>
<path d="M189.325 10.1865C190.709 10.1668 192.054 10.6507 193.124 11.5527V6.01006C193.119 5.85695 193.145 5.7044 193.199 5.56189C193.254 5.41937 193.337 5.28994 193.442 5.1816C193.548 5.07327 193.674 4.98835 193.812 4.93212C193.951 4.87589 194.1 4.84953 194.249 4.8547C194.397 4.85138 194.545 4.87868 194.684 4.93499C194.822 4.9913 194.948 5.07548 195.054 5.18257C195.162 5.28945 195.247 5.41824 195.303 5.56072C195.36 5.7032 195.387 5.85624 195.383 6.01006V16.4103C195.398 17.2294 195.248 18.0429 194.943 18.7999C194.638 19.5568 194.185 20.2409 193.61 20.8093C193.048 21.3871 192.38 21.8454 191.645 22.1581C190.911 22.4708 190.123 22.6318 189.328 22.6318C188.532 22.6318 187.745 22.4708 187.01 22.1581C186.275 21.8454 185.608 21.3871 185.045 20.8093C184.483 20.2314 184.037 19.5455 183.732 18.7905C183.428 18.0356 183.271 17.2265 183.271 16.4093C183.271 15.5922 183.428 14.783 183.732 14.0281C184.037 13.2731 184.483 12.5872 185.045 12.0094C185.6 11.4214 186.265 10.9564 187.001 10.6429C187.738 10.3294 188.528 10.1741 189.325 10.1865ZM193.124 16.4083C193.127 15.8904 193.025 15.3774 192.826 14.9017C192.633 14.4402 192.358 14.0199 192.015 13.6624C191.669 13.3047 191.259 13.0184 190.808 12.8193C190.339 12.6132 189.833 12.507 189.322 12.507C188.811 12.507 188.306 12.6132 187.836 12.8193C186.929 13.2167 186.21 13.9617 185.83 14.8958C185.633 15.3741 185.532 15.8881 185.532 16.4074C185.532 16.9266 185.633 17.4406 185.83 17.9189C186.207 18.8519 186.923 19.5974 187.826 19.9974C188.296 20.2035 188.802 20.3097 189.313 20.3097C189.823 20.3097 190.329 20.2035 190.799 19.9974C191.249 19.8011 191.658 19.5183 192.005 19.164C192.348 18.8065 192.624 18.3862 192.816 17.9247C193.019 17.4472 193.123 16.9314 193.122 16.4103L193.124 16.4083Z" fill="#1A1C1E"/>
<path d="M29.9172 13.4172C29.9172 18.117 26.2044 21.927 21.6244 21.927C18.6354 21.927 16.0158 20.3043 14.5565 17.8706C14.1716 19.6163 12.6946 20.9444 10.8901 21.0802C13.2526 24.5585 17.1795 26.8345 21.6244 26.8345C28.8456 26.8345 34.6995 20.8274 34.6995 13.4172C34.6995 6.0071 28.8456 0 21.6244 0C14.4105 0 8.56113 5.99493 8.54929 13.3947C9.14794 13.0438 9.84298 12.843 10.5843 12.843C11.6507 12.843 12.6212 13.2585 13.3469 13.9385C13.3368 13.7661 13.3316 13.5923 13.3316 13.4172C13.3316 8.71742 17.0444 4.90747 21.6244 4.90747C26.2044 4.90747 29.9172 8.71742 29.9172 13.4172Z" fill="url(#paint0_linear_1_783)"/>
<!-- <path d="M38.1591 27.3564C42.8843 27.3283 46.7063 23.3889 46.7063 18.5335C46.7063 13.6607 42.8568 9.71051 38.1083 9.71051C34.1894 9.71051 30.4769 13.104 29.5102 16.0276C28.5436 18.9512 26.5806 20.5731 24.4735 21.4049C24.4774 21.4169 24.4814 21.4288 24.4855 21.4407C22.3444 22.1243 21.1092 22.0693 18.9364 21.4049H10.5843V27.3565H38.1083H38.1591V27.3564ZM42.0257 18.5335C42.0257 20.7537 40.2718 22.5535 38.1082 22.5535C35.9447 22.5535 34.1908 20.7537 34.1908 18.5335C34.1908 16.3134 35.9447 14.5136 38.1082 14.5136C40.2718 14.5136 42.0257 16.3134 42.0257 18.5335Z" fill="url(#paint1_linear_1_783)"/> -->
<path fill-rule="evenodd" clip-rule="evenodd" d="M38.1591 27.3564C42.8843 27.3283 46.7063 23.3889 46.7063 18.5335C46.7063 13.6607 42.8568 9.71051 38.1083 9.71051C34.1894 9.71051 30.4769 13.104 29.5102 16.0276C28.5436 18.9512 26.5806 20.5731 24.4735 21.4049C24.4774 21.4169 24.4814 21.4288 24.4855 21.4407C22.3444 22.1243 21.1092 22.0693 18.9364 21.4049H10.5843V27.3565H38.1083H38.1591V27.3564ZM42.0257 18.5335C42.0257 20.7537 40.2718 22.5535 38.1082 22.5535C35.9447 22.5535 34.1908 20.7537 34.1908 18.5335C34.1908 16.3134 35.9447 14.5136 38.1082 14.5136C40.2718 14.5136 42.0257 16.3134 42.0257 18.5335Z" fill="url(#paint1_linear_1_783)"/>
<path d="M10.6206 6.63971C8.62654 6.63971 6.67726 7.24723 5.01926 8.38545C3.36126 9.52367 2.06901 11.1415 1.30591 13.0342C0.54282 14.927 0.343161 17.0098 0.732182 19.0192C1.1212 21.0285 2.08144 22.8743 3.49145 24.323C4.90146 25.7716 6.69793 26.7582 8.65367 27.1579C10.6094 27.5576 12.6366 27.3524 14.4789 26.5684C16.3211 25.7844 17.8958 24.4567 19.0036 22.7532C20.1114 21.0498 20.7027 19.047 20.7027 16.9983C20.7027 15.638 20.442 14.291 19.9353 13.0342C19.4286 11.7775 18.686 10.6356 17.7498 9.67367C16.8135 8.71179 15.7021 7.94878 14.4789 7.42821C13.2557 6.90764 11.9446 6.63971 10.6206 6.63971ZM10.6206 21.0088C9.84857 21.0088 9.09388 20.7736 8.45197 20.3329C7.81005 19.8922 7.30973 19.2659 7.01429 18.5331C6.71885 17.8002 6.64155 16.9939 6.79216 16.2159C6.94278 15.438 7.31455 14.7234 7.86045 14.1625C8.40636 13.6016 9.10188 13.2196 9.85908 13.0649C10.6163 12.9102 11.4011 12.9896 12.1144 13.2931C12.8276 13.5967 13.4373 14.1107 13.8662 14.7702C14.2951 15.4297 14.524 16.2051 14.524 16.9983C14.5247 17.5254 14.4242 18.0475 14.2283 18.5346C14.0325 19.0218 13.745 19.4645 13.3825 19.8374C13.02 20.2104 12.5894 20.5062 12.1155 20.7081C11.6416 20.91 11.1336 21.0139 10.6206 21.0139V21.0088Z" fill="#6763F7"/>
<path d="M37.9176 4.37853C39.0639 4.37853 39.9932 3.42378 39.9932 2.24603C39.9932 1.06828 39.0639 0.113525 37.9176 0.113525C36.7713 0.113525 35.842 1.06828 35.842 2.24603C35.842 3.42378 36.7713 4.37853 37.9176 4.37853Z" fill="#FFAD4D"/>
</g>

</symbol><symbol id="sepa" viewBox="0 0 40 24">
<rect x="0.5" y="0.5" width="39" height="23" rx="5.5" fill="white" stroke="#D5D8FF"/>
<path fill-rule="evenodd" clip-rule="evenodd" d="M23.0183 10.6837H24.3934C24.8294 10.6675 25.0946 10.6329 25.19 10.5788C25.3204 10.5049 25.4079 10.3569 25.4514 10.135C25.4793 9.98723 25.4932 9.76761 25.4932 9.47582C25.4932 9.11841 25.4656 8.85348 25.41 8.68041C25.3306 8.43803 25.1406 8.29039 24.8397 8.23677C24.7802 8.22867 24.6377 8.22437 24.412 8.22437H23.0183V10.6837ZM20.8121 14.8262V6.375H24.9217C25.4853 6.375 25.9154 6.42247 26.211 6.51731C26.8869 6.73569 27.3404 7.18282 27.5726 7.85858C27.6926 8.21322 27.7525 8.74719 27.7525 9.46017C27.7525 10.3174 27.686 10.9335 27.5544 11.3085C27.2909 12.0502 26.7483 12.4775 25.929 12.5882C25.8326 12.6048 25.4227 12.6197 24.6991 12.6316L24.3329 12.6442H23.0179V14.8262H20.8121ZM9.73626 9.07084H11.7883C11.8015 8.88414 11.8082 8.7445 11.8082 8.65109C11.8082 7.51232 11.3617 6.81933 10.4688 6.57193C10.1029 6.47074 9.48908 6.41968 8.62782 6.41968C8.08076 6.41968 7.58341 6.44029 7.13509 6.48058C6.59628 6.52528 6.15362 6.67487 5.8077 6.92965C5.57156 7.09564 5.40044 7.33833 5.29425 7.65801C5.18816 7.97759 5.13507 8.40246 5.13507 8.93233C5.13507 9.62808 5.2333 10.1482 5.42967 10.492C5.65309 10.8966 6.10082 11.163 6.77267 11.2926C7.0278 11.3376 7.48339 11.3841 8.13922 11.4324C8.95594 11.4891 9.41351 11.5338 9.51185 11.5659C9.77484 11.6471 9.90658 11.8734 9.90658 12.2455C9.90658 12.4116 9.89097 12.5474 9.85955 12.6522C9.80039 12.8226 9.6766 12.9458 9.48798 13.0223C9.38199 13.0631 9.1363 13.0834 8.75131 13.0834H7.99694C7.79609 13.0789 7.62527 13.0408 7.48379 12.9683C7.27966 12.8632 7.17734 12.6272 7.17734 12.2603L7.17715 12.0845H5.12512C5.12512 12.7722 5.17394 13.2634 5.27258 13.5584C5.44966 14.0883 5.81556 14.4401 6.37057 14.6138C6.82278 14.7556 7.62368 14.8261 8.77289 14.8261C9.46134 14.8261 9.9732 14.7936 10.3078 14.7286C11.1064 14.575 11.6196 14.209 11.8481 13.6296C11.9742 13.3139 12.0372 12.8156 12.0372 12.1352C12.0372 11.84 12.0234 11.5744 11.9958 11.3396C11.9486 10.9471 11.8005 10.6293 11.5522 10.3861C11.2367 10.0744 10.7283 9.88204 10.0269 9.80915C9.80596 9.78485 9.25204 9.74209 8.36513 9.6814L7.9513 9.65125C7.76964 9.63916 7.62398 9.59866 7.51371 9.52976C7.3598 9.43266 7.28304 9.23007 7.28304 8.92238C7.28304 8.5825 7.36974 8.36176 7.54295 8.26026C7.71625 8.15906 8.07141 8.10852 8.60714 8.10852C9.15877 8.10852 9.49584 8.19638 9.61794 8.37191C9.69668 8.49054 9.73626 8.72358 9.73626 9.07084ZM5.13318 16.5021L5.44081 16.4701C5.45931 16.577 5.49689 16.6555 5.55347 16.7057C5.61014 16.7558 5.6865 16.7808 5.78265 16.7808C5.88447 16.7808 5.96113 16.7586 6.01283 16.7141C6.06443 16.6695 6.09019 16.6174 6.09019 16.5577C6.09019 16.5195 6.07935 16.487 6.05777 16.46C6.0361 16.4332 5.99831 16.4099 5.94432 16.3899C5.90734 16.3769 5.82322 16.3535 5.69187 16.3199C5.52274 16.2768 5.40422 16.2237 5.33601 16.1607C5.24016 16.0721 5.19224 15.964 5.19224 15.8365C5.19224 15.7545 5.21481 15.6778 5.26005 15.6064C5.30519 15.5349 5.37042 15.4805 5.45543 15.4432C5.54054 15.4058 5.64325 15.3871 5.76356 15.3871C5.96003 15.3871 6.10789 15.4317 6.20721 15.5207C6.30654 15.6098 6.35865 15.7286 6.36362 15.8773L6.04674 15.8901C6.03321 15.807 6.00418 15.7474 5.95964 15.7109C5.91519 15.6745 5.84847 15.6562 5.75948 15.6562C5.66761 15.6562 5.59582 15.6757 5.54382 15.7147C5.51031 15.7396 5.49361 15.773 5.49361 15.8148C5.49361 15.8531 5.50932 15.8857 5.54064 15.913C5.58041 15.9474 5.67716 15.9834 5.83087 16.0206C5.98449 16.0579 6.09814 16.0966 6.17182 16.1368C6.2454 16.1769 6.30306 16.2317 6.34473 16.3012C6.38629 16.3709 6.40717 16.4569 6.40717 16.5592C6.40717 16.6521 6.38221 16.7389 6.3323 16.8199C6.28238 16.9009 6.21189 16.9611 6.12071 17.0005C6.02953 17.0398 5.91589 17.0596 5.77977 17.0596C5.5817 17.0596 5.42958 17.0122 5.32339 16.9172C5.2173 16.8223 5.15386 16.684 5.13318 16.5021ZM6.73572 15.8613H7.03709V17.0308H6.73572V15.8613ZM6.73584 15.416H7.03721V15.7012H6.73584V15.416ZM8.14211 17.031H8.44348V16.3028C8.44348 16.2123 8.43791 16.1428 8.42687 16.0943C8.41584 16.0457 8.39625 16.0023 8.36811 15.9641C8.33997 15.9259 8.29851 15.8944 8.24372 15.8698C8.18894 15.8452 8.12839 15.8328 8.06217 15.8328C7.91203 15.8328 7.78734 15.8996 7.68841 16.0334V15.8616H7.40881V17.031H7.71018V16.5002C7.71018 16.3692 7.71774 16.2795 7.73305 16.231C7.74827 16.1824 7.7764 16.1434 7.81757 16.114C7.85873 16.0846 7.90517 16.0698 7.95697 16.0698C7.99734 16.0698 8.03194 16.0802 8.06067 16.1007C8.08941 16.1213 8.11009 16.1503 8.12292 16.1874C8.13564 16.2245 8.14211 16.3063 8.14211 16.4329V17.031ZM9.05298 16.4207C9.05298 16.5452 9.07605 16.6363 9.12238 16.6941C9.16861 16.752 9.22569 16.7808 9.2936 16.7808C9.36628 16.7808 9.42773 16.7512 9.47794 16.6919C9.52805 16.6326 9.55321 16.5448 9.55321 16.4284C9.55321 16.307 9.52915 16.2168 9.48112 16.1578C9.433 16.099 9.37235 16.0695 9.29887 16.0695C9.22748 16.0695 9.16861 16.0985 9.12238 16.1562C9.07605 16.2141 9.05298 16.3022 9.05298 16.4207ZM8.78265 17.1077L9.12439 17.1461C9.13015 17.1897 9.14338 17.2196 9.16406 17.236C9.19269 17.2594 9.23773 17.2711 9.29918 17.2711C9.37783 17.2711 9.43679 17.259 9.47617 17.2348C9.50251 17.2186 9.5226 17.1926 9.53622 17.1566C9.54547 17.1307 9.55014 17.0835 9.55014 17.0144L9.55104 16.8436C9.46215 16.9684 9.34939 17.0308 9.21258 17.0308C9.05996 17.0308 8.93925 16.9643 8.85016 16.8311C8.78026 16.7259 8.74536 16.5949 8.74536 16.4383C8.74536 16.2418 8.7911 16.0918 8.88267 15.9881C8.97425 15.8844 9.08819 15.8325 9.22431 15.8325C9.36471 15.8325 9.48054 15.8962 9.57182 16.0233V15.8613H9.85151V16.9125C9.85151 17.0509 9.84047 17.1542 9.8183 17.2225C9.79623 17.291 9.76521 17.3446 9.72524 17.3836C9.68527 17.4225 9.63197 17.4531 9.56525 17.4751C9.49854 17.4972 9.41422 17.5082 9.31231 17.5082C9.11971 17.5082 8.9831 17.474 8.90246 17.4056C8.82182 17.3372 8.78155 17.2505 8.78155 17.1454C8.78155 17.135 8.78195 17.1225 8.78265 17.1077ZM10.5139 15.416H10.2125V17.0308H10.5139V15.416ZM11.5634 16.3482C11.5613 16.2572 11.5387 16.1881 11.4957 16.1406C11.4527 16.0932 11.4004 16.0695 11.3388 16.0695C11.2728 16.0695 11.2183 16.0946 11.1754 16.1445C11.1323 16.1944 11.1113 16.2624 11.112 16.3482H11.5634ZM11.5476 16.6624L11.8459 16.7136C11.8073 16.8263 11.7464 16.9122 11.6632 16.9712C11.5799 17.0302 11.4757 17.0597 11.3508 17.0597C11.1528 17.0597 11.0063 16.9929 10.9114 16.8595C10.8363 16.7527 10.7988 16.6179 10.7988 16.4549C10.7988 16.2605 10.848 16.108 10.9467 15.9978C11.0452 15.8876 11.1698 15.8325 11.3204 15.8325C11.4898 15.8325 11.6233 15.8903 11.7211 16.0059C11.819 16.1216 11.8657 16.2987 11.8614 16.5374H11.1065C11.1086 16.6295 11.133 16.701 11.1797 16.7523C11.2265 16.8034 11.2847 16.829 11.3545 16.829C11.402 16.829 11.4419 16.8159 11.4743 16.7895C11.5066 16.7633 11.5311 16.7208 11.5476 16.6624ZM12.8474 15.416V17.0308H14.0375V16.7585H13.1644V16.3196H13.9474V16.0473H13.1644V15.6884H14.0065V15.416H12.8474ZM15.1149 17.0308V16.8556C15.0735 16.9181 15.0191 16.9677 14.9516 17.0045C14.8841 17.0412 14.8129 17.0597 14.7379 17.0597C14.6614 17.0597 14.593 17.0423 14.5323 17.0078C14.4716 16.9732 14.4277 16.9246 14.4005 16.8622C14.3734 16.7997 14.3599 16.7132 14.3599 16.6029V15.8613H14.6612V16.3992C14.6612 16.5639 14.6667 16.6647 14.6778 16.7018C14.6889 16.7391 14.709 16.7684 14.7382 16.7901C14.7674 16.8118 14.8044 16.8225 14.8494 16.8225C14.9007 16.8225 14.9467 16.8082 14.9873 16.7791C15.0279 16.75 15.0557 16.7141 15.0707 16.671C15.0856 16.628 15.0932 16.5227 15.0932 16.3552V15.8613H15.3945V17.0308H15.1149ZM15.7555 17.031H16.0569V16.6694C16.0569 16.4703 16.0653 16.3394 16.0821 16.2769C16.0989 16.2145 16.122 16.1713 16.1513 16.1473C16.1807 16.1235 16.2163 16.1115 16.2586 16.1115C16.3022 16.1115 16.3495 16.1285 16.4002 16.1622L16.4919 15.8914C16.4284 15.8523 16.3624 15.8328 16.294 15.8328C16.2455 15.8328 16.2022 15.8457 16.164 15.8714C16.1259 15.8973 16.0829 15.9493 16.0351 16.0279V15.8616H15.7555V17.031ZM16.921 16.446C16.921 16.5625 16.9478 16.6516 17.0014 16.7136C17.055 16.7755 17.121 16.8064 17.1996 16.8064C17.2782 16.8064 17.3441 16.7755 17.3973 16.7136C17.4505 16.6516 17.4771 16.5617 17.4771 16.4438C17.4771 16.3289 17.4505 16.2403 17.3973 16.1785C17.3441 16.1165 17.2782 16.0856 17.1996 16.0856C17.121 16.0856 17.055 16.1165 17.0014 16.1785C16.9478 16.2403 16.921 16.3296 16.921 16.446ZM16.613 16.4294C16.613 16.3263 16.6376 16.2264 16.6868 16.1299C16.7359 16.0334 16.8055 15.9597 16.8957 15.9088C16.9858 15.8579 17.0865 15.8325 17.1977 15.8325C17.3694 15.8325 17.5101 15.8901 17.6199 16.0055C17.7295 16.1208 17.7844 16.2666 17.7844 16.4428C17.7844 16.6203 17.7289 16.7677 17.6182 16.8845C17.5074 17.0012 17.3679 17.0597 17.1998 17.0597C17.0958 17.0597 16.9965 17.0353 16.9022 16.9868C16.8077 16.9381 16.7359 16.8668 16.6868 16.7728C16.6376 16.6788 16.613 16.5645 16.613 16.4294ZM19.0829 16.1495V15.6881H19.2352C19.349 15.6881 19.4245 15.6918 19.4622 15.6992C19.5133 15.7088 19.5556 15.7328 19.589 15.7713C19.6224 15.8097 19.6391 15.8585 19.6391 15.9177C19.6391 15.9658 19.6272 16.0079 19.6034 16.0441C19.5796 16.0804 19.5467 16.107 19.5049 16.1241C19.4629 16.1411 19.3798 16.1495 19.2555 16.1495H19.0829ZM18.7661 15.416V17.0308H19.083V16.4221H19.289C19.4319 16.4221 19.5411 16.4144 19.6165 16.3989C19.672 16.3864 19.7266 16.361 19.7803 16.3224C19.834 16.2838 19.8783 16.2307 19.9131 16.1632C19.948 16.0955 19.9654 16.0122 19.9654 15.9131C19.9654 15.7845 19.9352 15.6796 19.8747 15.5985C19.8141 15.5173 19.739 15.4645 19.6493 15.4403C19.591 15.4242 19.4656 15.416 19.2734 15.416H18.7661ZM20.9123 16.4701C20.8738 16.4834 20.8131 16.4992 20.73 16.5177C20.6468 16.536 20.5924 16.5542 20.567 16.5718C20.5278 16.6006 20.5084 16.6371 20.5084 16.6813C20.5084 16.7249 20.5239 16.7624 20.5552 16.7942C20.5865 16.8259 20.6262 16.8418 20.6747 16.8418C20.7287 16.8418 20.7801 16.8233 20.8292 16.7865C20.8654 16.7584 20.8892 16.7242 20.9006 16.6836C20.9083 16.657 20.9123 16.6065 20.9123 16.5319V16.4701ZM20.5085 16.217L20.2382 16.1657C20.2688 16.0524 20.3215 15.9687 20.3962 15.9142C20.4711 15.8598 20.5823 15.8325 20.7297 15.8325C20.8637 15.8325 20.9635 15.8489 21.029 15.8815C21.0945 15.9144 21.1408 15.956 21.1674 16.0063C21.1942 16.0566 21.2076 16.1492 21.2076 16.2838L21.2045 16.6458C21.2045 16.7487 21.2093 16.8248 21.2188 16.8736C21.2285 16.9225 21.2465 16.9749 21.2728 17.0308H20.9745C20.9666 17.0106 20.957 16.9805 20.9456 16.9407C20.9406 16.9226 20.937 16.9107 20.9351 16.9049C20.8838 16.9564 20.829 16.9952 20.7706 17.021C20.7122 17.0468 20.6501 17.0597 20.5839 17.0597C20.4671 17.0597 20.3751 17.0269 20.3079 16.9615C20.2406 16.8959 20.207 16.8131 20.207 16.713C20.207 16.6469 20.2223 16.5878 20.2529 16.536C20.2836 16.4841 20.3265 16.4443 20.3817 16.4167C20.437 16.3892 20.5167 16.3649 20.6207 16.3443C20.761 16.3172 20.8582 16.2918 20.9124 16.2683V16.237C20.9124 16.1767 20.8981 16.1337 20.8694 16.108C20.8407 16.0824 20.7867 16.0696 20.7072 16.0696C20.6535 16.0696 20.6116 16.0805 20.5815 16.1023C20.5514 16.1241 20.527 16.1624 20.5085 16.217ZM21.7437 15.8613H21.4237L21.8561 17.034C21.8382 17.1001 21.8125 17.1545 21.7788 17.1974C21.7451 17.24 21.6933 17.2614 21.623 17.2614C21.5851 17.2614 21.5423 17.2567 21.4951 17.247L21.5231 17.4895C21.5787 17.502 21.6356 17.5082 21.6934 17.5082C21.7504 17.5082 21.8016 17.502 21.847 17.4894C21.8923 17.477 21.9303 17.4593 21.9614 17.4369C21.9924 17.4145 22.02 17.3852 22.0438 17.3492C22.0677 17.3131 22.0929 17.2609 22.1193 17.1924L22.592 15.8613H22.2813L22.0156 16.6916L21.7437 15.8613ZM22.827 15.8616H23.1035V16.0213C23.2029 15.8956 23.3211 15.8328 23.4583 15.8328C23.5311 15.8328 23.5943 15.8481 23.6479 15.879C23.7015 15.91 23.7455 15.9567 23.7797 16.0192C23.8296 15.9567 23.8836 15.91 23.9412 15.879C23.9991 15.8481 24.0606 15.8328 24.1263 15.8328C24.2098 15.8328 24.2804 15.8502 24.3382 15.8853C24.3959 15.92 24.4392 15.9714 24.4677 16.0392C24.4883 16.0891 24.4986 16.17 24.4986 16.2818V17.031H24.1973V16.3612C24.1973 16.2449 24.1869 16.17 24.1663 16.1361C24.1385 16.0919 24.0958 16.0698 24.0383 16.0698C23.9962 16.0698 23.9566 16.083 23.9197 16.1096C23.8827 16.1361 23.856 16.1749 23.8397 16.2261C23.8233 16.2771 23.8151 16.3579 23.8151 16.4682V17.031H23.5137V16.3889C23.5137 16.2747 23.5084 16.2012 23.4977 16.168C23.487 16.1349 23.4705 16.1103 23.4481 16.0941C23.4256 16.078 23.3953 16.0698 23.3568 16.0698C23.3106 16.0698 23.2689 16.0827 23.2319 16.1085C23.1949 16.1342 23.1685 16.1714 23.1524 16.2199C23.1364 16.2685 23.1284 16.349 23.1284 16.4616V17.031H22.827V15.8616ZM25.4689 16.1406C25.5121 16.1881 25.5346 16.2572 25.5368 16.3482H25.0853C25.0846 16.2624 25.1057 16.1944 25.1488 16.1445C25.1916 16.0946 25.2462 16.0695 25.312 16.0695C25.3737 16.0695 25.4261 16.0932 25.4689 16.1406ZM25.8194 16.7136L25.5211 16.6624C25.5046 16.7208 25.4802 16.7633 25.4476 16.7895C25.4153 16.8159 25.3755 16.829 25.328 16.829C25.2581 16.829 25.1999 16.8034 25.1532 16.7523C25.1065 16.701 25.082 16.6295 25.0798 16.5374H25.8349C25.8392 16.2987 25.7924 16.1216 25.6945 16.0059C25.5967 15.8903 25.4632 15.8325 25.2939 15.8325C25.1432 15.8325 25.0187 15.8876 24.9201 15.9978C24.8216 16.108 24.7722 16.2605 24.7722 16.4549C24.7722 16.6179 24.8097 16.7527 24.8848 16.8595C24.9798 16.9929 25.1263 17.0597 25.3241 17.0597C25.4492 17.0597 25.5533 17.0302 25.6367 16.9712C25.7199 16.9122 25.7807 16.8263 25.8194 16.7136ZM27.1759 17.031H26.8745V16.4329C26.8745 16.3063 26.8681 16.2245 26.8554 16.1874C26.8426 16.1503 26.8218 16.1213 26.7931 16.1007C26.7644 16.0802 26.7298 16.0698 26.6894 16.0698C26.6377 16.0698 26.5912 16.0846 26.5501 16.114C26.5089 16.1434 26.4808 16.1824 26.4655 16.231C26.4503 16.2795 26.4426 16.3692 26.4426 16.5002V17.031H26.1412V15.8616H26.4208V16.0334C26.5199 15.8996 26.6444 15.8328 26.7946 15.8328C26.8608 15.8328 26.9215 15.8452 26.9761 15.8698C27.0309 15.8944 27.0725 15.9259 27.1006 15.9641C27.1288 16.0023 27.1483 16.0457 27.1593 16.0943C27.1704 16.1428 27.1759 16.2123 27.1759 16.3028V17.031ZM28.0655 16.1081V15.8614H27.8603V15.4449L27.559 15.6275V15.8614H27.4222V16.1081H27.559V16.6193C27.559 16.7289 27.562 16.8018 27.5685 16.8379C27.5763 16.8886 27.5902 16.9289 27.6104 16.9587C27.6306 16.9885 27.6624 17.0129 27.7055 17.0316C27.7488 17.0503 27.7972 17.0598 27.8512 17.0598C27.939 17.0598 28.0176 17.0443 28.0871 17.0134L28.0608 16.7737C28.0089 16.7935 27.9695 16.8034 27.9421 16.8034C27.9225 16.8034 27.906 16.7982 27.8922 16.788C27.8786 16.7776 27.8699 16.7646 27.8661 16.7487C27.8622 16.7329 27.8603 16.677 27.8603 16.5813V16.1081H28.0655ZM28.2349 16.7011L28.5362 16.653C28.5491 16.7128 28.575 16.7581 28.6141 16.7891C28.6533 16.8202 28.7079 16.8356 28.7783 16.8356C28.856 16.8356 28.9144 16.8208 28.9534 16.7913C28.9798 16.7705 28.993 16.7429 28.993 16.708C28.993 16.6845 28.9858 16.6648 28.9714 16.6494C28.9563 16.6345 28.9227 16.6209 28.8704 16.6083C28.6269 16.5528 28.4725 16.5023 28.4075 16.4566C28.3172 16.3934 28.2722 16.3053 28.2722 16.1928C28.2722 16.0911 28.311 16.0057 28.3891 15.9366C28.4672 15.8674 28.5882 15.8328 28.7522 15.8328C28.9083 15.8328 29.0242 15.8587 29.1002 15.9105C29.1761 15.9624 29.2284 16.0389 29.2571 16.1403L28.9743 16.1948C28.9621 16.1494 28.9388 16.1144 28.9046 16.0902C28.8703 16.0659 28.8215 16.0538 28.7582 16.0538C28.6782 16.0538 28.6208 16.0652 28.5863 16.0883C28.5632 16.1045 28.5517 16.1255 28.5517 16.1513C28.5517 16.1736 28.5617 16.1924 28.5818 16.208C28.6089 16.2286 28.7029 16.2578 28.8635 16.2956C29.024 16.3333 29.1362 16.3794 29.1999 16.4341C29.2628 16.4895 29.2944 16.5667 29.2944 16.6656C29.2944 16.7734 29.2508 16.866 29.164 16.9435C29.077 17.0212 28.9486 17.0599 28.7783 17.0599C28.6239 17.0599 28.5016 17.0276 28.4115 16.9633C28.3215 16.8988 28.2626 16.8116 28.2349 16.7011ZM30.91 15.7939L31.1289 16.3931H30.6984L30.91 15.7939ZM31.3687 17.0308H31.71L31.0776 15.416H30.7443L30.1377 17.0308H30.4731L30.6021 16.6656H31.2333L31.3687 17.0308ZM32.2269 17.031H31.9255V15.8616H32.2051V16.0279C32.253 15.9493 32.2958 15.8973 32.3341 15.8714C32.3722 15.8457 32.4154 15.8328 32.464 15.8328C32.5324 15.8328 32.5984 15.8523 32.6619 15.8914L32.5702 16.1622C32.5194 16.1285 32.4722 16.1115 32.4286 16.1115C32.3863 16.1115 32.3506 16.1235 32.3213 16.1473C32.2919 16.1713 32.2689 16.2145 32.2522 16.2769C32.2353 16.3394 32.2269 16.4703 32.2269 16.6694V17.031ZM33.4651 16.1406C33.5081 16.1881 33.5307 16.2572 33.5329 16.3482H33.0814C33.0806 16.2624 33.1018 16.1944 33.1449 16.1445C33.1878 16.0946 33.2422 16.0695 33.3082 16.0695C33.3698 16.0695 33.4221 16.0932 33.4651 16.1406ZM33.8155 16.7136L33.5172 16.6624C33.5006 16.7208 33.4761 16.7633 33.4438 16.7895C33.4114 16.8159 33.3715 16.829 33.324 16.829C33.2543 16.829 33.1961 16.8034 33.1492 16.7523C33.1026 16.701 33.0781 16.6295 33.0759 16.5374H33.831C33.8353 16.2987 33.7885 16.1216 33.6907 16.0059C33.5928 15.8903 33.4592 15.8325 33.29 15.8325C33.1394 15.8325 33.0147 15.8876 32.9163 15.9978C32.8176 16.108 32.7683 16.2605 32.7683 16.4549C32.7683 16.6179 32.8058 16.7527 32.8809 16.8595C32.9758 16.9929 33.1224 17.0597 33.3203 17.0597C33.4453 17.0597 33.5495 17.0302 33.6327 16.9712C33.716 16.9122 33.7769 16.8263 33.8155 16.7136ZM34.7646 16.4701C34.7262 16.4834 34.6654 16.4992 34.5822 16.5177C34.4991 16.536 34.4448 16.5542 34.4193 16.5718C34.3801 16.6006 34.3607 16.6371 34.3607 16.6813C34.3607 16.7249 34.3762 16.7624 34.4075 16.7942C34.4388 16.8259 34.4785 16.8418 34.527 16.8418C34.581 16.8418 34.6324 16.8233 34.6815 16.7865C34.7177 16.7584 34.7415 16.7242 34.7529 16.6836C34.7606 16.657 34.7646 16.6065 34.7646 16.5319V16.4701ZM34.3607 16.217L34.0903 16.1657C34.121 16.0524 34.1737 15.9687 34.2484 15.9142C34.3233 15.8598 34.4345 15.8325 34.5819 15.8325C34.7159 15.8325 34.8157 15.8489 34.8812 15.8815C34.9467 15.9144 34.993 15.956 35.0196 16.0063C35.0464 16.0566 35.0598 16.1492 35.0598 16.2838L35.0567 16.6458C35.0567 16.7487 35.0615 16.8248 35.071 16.8736C35.0807 16.9225 35.0987 16.9749 35.1249 17.0308H34.8267C34.8188 17.0106 34.8093 16.9805 34.7978 16.9407C34.7947 16.9291 34.792 16.9201 34.79 16.9135L34.7872 16.9049C34.7359 16.9564 34.6813 16.9952 34.6229 17.021C34.5645 17.0468 34.5023 17.0597 34.4361 17.0597C34.3193 17.0597 34.2273 17.0269 34.16 16.9615C34.0929 16.8959 34.0593 16.8131 34.0593 16.713C34.0593 16.6469 34.0745 16.5878 34.1052 16.536C34.1358 16.4841 34.1787 16.4443 34.2339 16.4167C34.2892 16.3892 34.3688 16.3649 34.4729 16.3443C34.6131 16.3172 34.7104 16.2918 34.7646 16.2683V16.237C34.7646 16.1767 34.7503 16.1337 34.7216 16.108C34.693 16.0824 34.6389 16.0696 34.5594 16.0696C34.5057 16.0696 34.4638 16.0805 34.4337 16.1023C34.4036 16.1241 34.3792 16.1624 34.3607 16.217ZM30.9889 8.05554L32.0224 11.719H29.986L30.9889 8.05554ZM29.5117 13.3656H32.4609L32.8817 14.8262H35.1158L32.6231 6.375H29.2958L26.8334 14.8262H29.1155L29.5117 13.3656Z" fill="#1E46D1"/>
<path fill-rule="evenodd" clip-rule="evenodd" d="M17.768 7.56383C18.6778 7.56383 19.4897 7.99599 20.0234 8.67288L20.4989 7.62166C19.7553 6.89689 18.7432 6.45007 17.6269 6.45007C15.8889 6.45007 14.4021 7.53246 13.7919 9.06464H12.8647L12.3173 10.2749H13.51C13.5011 10.3871 13.4953 10.4995 13.4953 10.6141C13.4953 10.7529 13.5023 10.8899 13.5156 11.0254H12.9161L12.3688 12.236H13.8203C14.4479 13.7294 15.9161 14.7779 17.6269 14.7779C18.489 14.7779 19.289 14.5115 19.9514 14.0565V12.5728C19.418 13.1991 18.6378 13.5948 17.768 13.5948C16.7512 13.5948 15.8568 13.0542 15.336 12.236H18.3757L18.923 11.0254H14.8888C14.868 10.8797 14.8569 10.7308 14.8569 10.5792C14.8569 10.4766 14.8621 10.3751 14.8716 10.2749H19.2623L19.8097 9.06464H15.2513C15.7554 8.16752 16.6935 7.56383 17.768 7.56383Z" fill="#F7AB26"/>
</symbol></svg>